name C:\Users\antoi\Documents\MyRepositories\predsim_tutorial\Results\Case_1\motion.mot
datacolumns 124
datarows 4
range 0.56270235 0.63022664
endheader 
time	pelvis_tilt	pelvis_list	pelvis_rotation	pelvis_tx	pelvis_ty	pelvis_tz	hip_flexion_l	hip_adduction_l	hip_rotation_l	hip_flexion_r	hip_adduction_r	hip_rotation_r	knee_angle_l	knee_angle_r	ankle_angle_l	ankle_angle_r	subtalar_angle_l	subtalar_angle_r	mtp_angle_l	mtp_angle_r	lumbar_extension	lumbar_bending	lumbar_rotation	arm_flex_l	arm_add_l	arm_rot_l	arm_flex_r	arm_add_r	arm_rot_r	elbow_flex_l	elbow_flex_r	glut_med1_l/activation	glut_med2_l/activation	glut_med3_l/activation	glut_min1_l/activation	glut_min2_l/activation	glut_min3_l/activation	semimem_l/activation	semiten_l/activation	bifemlh_l/activation	bifemsh_l/activation	sar_l/activation	add_long_l/activation	add_brev_l/activation	add_mag1_l/activation	add_mag2_l/activation	add_mag3_l/activation	tfl_l/activation	pect_l/activation	grac_l/activation	glut_max1_l/activation	glut_max2_l/activation	glut_max3_l/activation	iliacus_l/activation	psoas_l/activation	quad_fem_l/activation	gem_l/activation	peri_l/activation	rect_fem_l/activation	vas_med_l/activation	vas_int_l/activation	vas_lat_l/activation	med_gas_l/activation	lat_gas_l/activation	soleus_l/activation	tib_post_l/activation	flex_dig_l/activation	flex_hal_l/activation	tib_ant_l/activation	per_brev_l/activation	per_long_l/activation	per_tert_l/activation	ext_dig_l/activation	ext_hal_l/activation	ercspn_l/activation	intobl_l/activation	extobl_l/activation	glut_med1_r/activation	glut_med2_r/activation	glut_med3_r/activation	glut_min1_r/activation	glut_min2_r/activation	glut_min3_r/activation	semimem_r/activation	semiten_r/activation	bifemlh_r/activation	bifemsh_r/activation	sar_r/activation	add_long_r/activation	add_brev_r/activation	add_mag1_r/activation	add_mag2_r/activation	add_mag3_r/activation	tfl_r/activation	pect_r/activation	grac_r/activation	glut_max1_r/activation	glut_max2_r/activation	glut_max3_r/activation	iliacus_r/activation	psoas_r/activation	quad_fem_r/activation	gem_r/activation	peri_r/activation	rect_fem_r/activation	vas_med_r/activation	vas_int_r/activation	vas_lat_r/activation	med_gas_r/activation	lat_gas_r/activation	soleus_r/activation	tib_post_r/activation	flex_dig_r/activation	flex_hal_r/activation	tib_ant_r/activation	per_brev_r/activation	per_long_r/activation	per_tert_r/activation	ext_dig_r/activation	ext_hal_r/activation	ercspn_r/activation	intobl_r/activation	extobl_r/activation	
          0.56270235	         -8.26321040	          4.88408642	         -7.64210348	          0.74839413	          0.89037804	          0.00638135	         35.31107116	          3.89930781	         -3.52748487	        -12.22910817	         -3.54817522	          6.37572057	        -12.11481011	        -12.47512102	         12.86718901	          4.17342608	         -7.41674726	          0.88627656	          0.27106686	         35.75376531	          2.96461780	         -1.80352523	          2.12137232	         -9.95620414	        -13.59260895	         16.74040943	          1.39692473	        -13.49779579	         18.45843800	          0.01375086	         87.06997238	          0.21854480	          0.05000012	          0.62008127	          0.05000055	          0.05000032	          0.48128106	          0.21814303	          0.05624238	          0.09330865	          0.09454325	          0.06875656	          0.06875905	          0.17870428	          0.15911791	          0.11508843	          0.14738354	          0.05000052	          0.06875745	          0.09037518	          0.05000013	          0.17094355	          0.10208462	          0.06875673	          0.06875632	          0.11791561	          0.09461570	          0.38504158	          0.05000013	          0.05000034	          0.05000035	          0.05000026	          0.05183672	          0.06875665	          0.05699827	          0.06875651	          0.05000089	          0.05000121	          0.54700216	          0.33600085	          0.20139822	          0.22280505	          0.75859000	          0.52005444	          0.12237852	          0.08180456	          0.06875674	          0.33240673	          0.09454956	          0.08276516	          0.13813701	          0.12926349	          0.09456083	          0.05000041	          0.05000032	          0.05000046	          0.07789061	          0.06875963	          0.20553972	          0.14377899	          0.06876229	          0.10801585	          0.16234096	          0.37668213	          0.06870281	          0.05000117	          0.05000418	          0.05000294	          0.05000280	          0.23281365	          0.52170760	          0.06092495	          0.05000360	          0.08569323	          0.05774844	          0.05004506	          0.05548370	          0.05326534	          0.24163403	          0.35386323	          0.24870651	          0.43117752	          0.46488361	          0.43879419	          0.05000006	          0.05000008	          0.05000005	          0.05000013	          0.05000003	          0.05000026	          0.06766228	          0.05000002	          0.05000003	
          0.58521045	         -8.22694432	          4.89512034	         -8.17997344	          0.78446093	          0.88734895	          0.00571616	         34.26013519	          4.22537677	         -2.89303508	        -11.24215736	         -3.83267668	          5.26729610	        -14.23361837	        -18.31753185	         11.18020921	          2.79912922	         -8.13082875	          1.86923883	          0.25540531	         36.86828452	          3.24870336	         -2.07473465	          2.19577612	        -12.14077859	        -13.64560328	         15.91932095	          0.57331491	        -13.52728656	         18.89640937	          0.06415821	         91.23613493	          0.33431317	          0.41364316	          0.55725310	          0.15416581	          0.32071920	          0.34998857	          0.15863393	          0.08741302	          0.06785428	          0.06875209	          0.05000020	          0.05000174	          0.12995406	          0.15148534	          0.19803146	          0.17892034	          0.05000033	          0.05000162	          0.09026267	          0.30664787	          0.26885383	          0.21595785	          0.05000005	          0.05000004	          0.30215218	          0.06880523	          0.28000291	          0.05000005	          0.10605578	          0.12556260	          0.13651741	          0.05000001	          0.05000003	          0.05000000	          0.05000000	          0.05000008	          0.05000007	          0.79318117	          0.43058594	          0.23023898	          0.68918863	          0.88501198	          0.37818603	          0.13738379	          0.07756549	          0.05000004	          0.24172671	          0.06875661	          0.06018695	          0.30037566	          0.09400078	          0.06876481	          0.06877221	          0.05000024	          0.05000016	          0.05664218	          0.05000232	          0.30144393	          0.34943088	          0.05000444	          0.08538399	          0.11805479	          0.47244251	          0.05000163	          0.05000052	          0.05000124	          0.05000076	          0.05000035	          0.16930324	          0.46295949	          0.05000007	          0.05000039	          0.06231628	          0.05000072	          0.06877042	          0.06882295	          0.06876397	          0.17571660	          0.25732986	          0.18085979	          0.33873322	          0.33806433	          0.31909212	          0.05000003	          0.05000019	          0.05000020	          0.05000019	          0.11386205	          0.05000025	          0.12930600	          0.05000001	          0.05000002	
          0.60771854	         -8.17837987	          4.80917852	         -8.56504918	          0.81958897	          0.88618104	          0.00483231	         33.30379898	          4.57620747	         -2.25297050	         -9.69026977	         -4.10648498	          4.27022668	        -16.51983251	        -24.88325843	          9.93089424	          1.19406802	         -8.92972898	          2.92298829	          0.19104759	         34.85577952	          3.47594618	         -2.28534074	          2.22403884	        -13.86021915	        -13.63237900	         15.50099834	         -0.18024030	        -13.52126936	         19.18282033	          0.27338556	         94.01253109	          0.42025293	          0.48089624	          0.61521056	          0.18460825	          0.23322997	          0.36099243	          0.11535885	          0.08320024	          0.06912589	          0.05000044	          0.05000036	          0.05000062	          0.09450315	          0.19294547	          0.23765824	          0.20692377	          0.05000033	          0.05000330	          0.10086518	          0.35936444	          0.30619885	          0.25661760	          0.05000010	          0.05000010	          0.21972593	          0.05003578	          0.32945254	          0.05000006	          0.17789043	          0.23935459	          0.24472717	          0.05000005	          0.05000016	          0.05000002	          0.11450734	          0.05000473	          0.05000168	          0.90313217	          0.31312274	          0.16743013	          0.50117911	          0.78010270	          0.41745161	          0.13794916	          0.05640595	          0.05000003	          0.17578404	          0.05000018	          0.05000005	          0.21843381	          0.06835787	          0.05000595	          0.05001210	          0.05000017	          0.05000024	          0.05000005	          0.05000042	          0.30541037	          0.41739297	          0.27895425	          0.09454865	          0.08584979	          0.52009771	          0.05006211	          0.05000046	          0.05000160	          0.05000090	          0.05000042	          0.12311769	          0.36983054	          0.05000010	          0.05000038	          0.05000007	          0.05000025	          0.05001018	          0.05004834	          0.05000541	          0.12778136	          0.18713065	          0.13152150	          0.24632730	          0.24584096	          0.23204434	          0.06919233	          0.05000016	          0.05000018	          0.05000016	          0.29628964	          0.05000068	          0.14830571	          0.05000000	          0.05000002	
          0.63022664	         -8.12650217	          4.63400138	         -8.78432515	          0.85339289	          0.88726028	          0.00384114	         32.19811923	          4.94282698	         -1.55653001	         -7.54222100	         -4.35466109	          3.43329934	        -18.55412810	        -31.94394383	          9.51592724	         -0.70518298	         -9.75680096	          4.02748607	          0.14577684	         29.57601768	          3.64565720	         -2.44040665	          2.19828953	        -14.98096332	        -13.57197936	         15.51377673	         -0.83579629	        -13.48922946	         19.33888287	          0.50899680	         95.35175783	          0.46381101	          0.50267152	          0.60137525	          0.18068669	          0.24206562	          0.31430566	          0.08570994	          0.09392587	          0.07596308	          0.05000025	          0.05000024	          0.05000044	          0.06872333	          0.21837889	          0.25753506	          0.21446678	          0.05000026	          0.05000223	          0.09613440	          0.38007083	          0.31407938	          0.26111284	          0.05000006	          0.05000006	          0.15978561	          0.05000164	          0.23957943	          0.05000005	          0.23308375	          0.30075919	          0.28820710	          0.05000007	          0.05000019	          0.05000004	          0.13034304	          0.05000307	          0.05000142	          0.87198465	          0.22770337	          0.12175548	          0.36445831	          0.72152694	          0.34733171	          0.10031684	          0.05000001	          0.05000002	          0.12783042	          0.05000021	          0.05000019	          0.15884548	          0.05000058	          0.05000047	          0.07003139	          0.07367460	          0.07663560	          0.05000022	          0.07057199	          0.28458925	          0.38652778	          0.20285653	          0.06875673	          0.06243020	          0.57904276	          0.31271229	          0.13423257	          0.05000172	          0.05000094	          0.05000042	          0.14522747	          0.29954023	          0.22225241	          0.05001160	          0.06875828	          0.05000002	          0.05000001	          0.05000001	          0.05000000	          0.09292279	          0.13608170	          0.09564262	          0.17912957	          0.17877595	          0.16874302	          0.25511501	          0.23161402	          0.12015211	          0.62008046	          0.50938669	          0.31035365	          0.17157236	          0.05000015	          0.05000007	
